<svg width="377" height="215" viewBox="0 0 377 215" fill="none" xmlns="http://www.w3.org/2000/svg">
<path d="M197.625 134.967L101.211 100.773V167.053L197.625 202.232V134.967Z" fill="#054D93"/>
<path d="M282.828 98.4457L196.471 65.4589L101.211 100.802L197.361 134.967L282.828 98.4457Z" fill="#0F5DA9"/>
<path d="M195.383 74.4277L138.207 55.3691V92.8291L195.383 112.545V74.4277Z" fill="#E19E00"/>
<path d="M245.832 53.2219L194.657 34.0683L138.207 55.435L195.185 74.4277L245.832 53.2219Z" fill="#F7B314"/>
<path d="M197.625 134.967L282.828 98.5312V166.281L197.625 202.232V134.967Z" fill="#2576C6"/>
<path d="M195.383 74.4277L245.832 53.1269V91.8335L195.383 112.545V74.4277Z" fill="#FFC131"/>
<path d="M194.822 38.5527L159.508 26.7812V51.2326L194.822 63.2167V38.5527Z" fill="#27BD14"/>
<path d="M226.773 25.0045L194.789 12.7675L159.508 26.8321L194.789 38.5526L226.773 25.0045Z" fill="#34E01E"/>
<path d="M194.822 38.5527L226.773 25.0995V49.9302L194.822 63.2167V38.5527Z" fill="#58FD43"/>
<path d="M82.1522 98.5312C80.8069 97.1859 77.1073 94.6074 75.4256 93.4863C72.0623 93.4863 66.6811 94.4953 72.0623 98.5312C78.7889 103.576 83.8338 100.213 82.1522 98.5312Z" fill="#F0CB77"/>
<path d="M59.1697 80.7396C52.4432 75.5488 44.5955 58.3586 42.9138 52.0058C41.7927 52.0058 36.7478 72.3314 44.5955 80.7396C50.8736 87.4661 70.3807 100.213 72.0623 99.7982C75.0831 99.0533 77.1072 96.7434 77.1072 93.6322C77.1072 91.8046 68.4275 87.8837 59.1697 80.7396Z" fill="#E4E4E4"/>
<path d="M336.737 44.4496C334.066 47.6644 325.519 55.7012 321.779 59.4517C311.629 66.9528 296.136 65.3454 291.328 64.8096C286.52 64.2738 281.178 65.3454 280.644 67.4885C280.11 69.6317 283.315 70.7033 288.657 71.7748C293.999 72.8464 320.176 71.7748 325.519 69.0959C330.861 66.417 340.477 58.3801 344.751 54.0938C349.024 49.8075 351.695 43.9138 349.024 41.7707C346.353 39.6275 339.408 41.2349 336.737 44.4496Z" fill="#FCDB8F"/>
<path d="M59.4425 107.59C58.2548 106.221 54.9886 103.596 53.504 102.455C50.5347 102.455 45.7839 103.482 50.5347 107.59C56.4732 112.726 60.9271 109.302 59.4425 107.59Z" fill="#F0CB77"/>
<path d="M355.458 12.7675C350.072 12.7675 350.072 14.8753 348.995 16.9831C348.744 17.51 347.379 19.0909 346.84 21.1987C346.302 23.3066 347.918 23.8335 347.918 24.3605C347.918 24.8874 346.302 38.5882 347.918 41.223C349.533 43.8578 357.073 50.7082 367.845 49.6543C378.617 48.6004 378.617 38.0613 374.308 39.1152C369.999 40.1691 366.768 34.3726 365.691 32.2648C364.614 30.157 366.229 21.7257 365.691 19.6179C365.152 17.51 360.844 12.7675 355.458 12.7675Z" fill="#11176C"/>
<path d="M334.456 58.517C334.883 64.8865 337.836 82.7566 339.259 90.8955C339.615 93.3725 342.781 98.8574 352.601 100.981C362.42 103.104 367.009 95.1418 368.077 90.8955C368.432 79.3949 369.144 55.863 369.144 53.7398C369.144 51.0858 369.678 45.2471 362.207 42.0623C354.735 38.8775 346.73 38.8775 341.928 42.0623C337.125 45.2471 333.923 50.555 334.456 58.517Z" fill="#F2F2F2"/>
<path d="M361.539 204.813V203.354H365.789L365.258 206.758C363.664 208.379 360.158 211.718 358.883 212.107C357.608 212.497 356.227 212.27 355.696 212.107C354.987 211.783 353.889 211.038 355.164 210.648C356.439 210.259 359.946 206.596 361.539 204.813Z" fill="#FCDB8F"/>
<path d="M330.106 74.5036C321.602 78.7448 305.657 79.2749 301.936 79.8051C295.558 80.4067 296.948 84.0463 299.81 84.0463C303.531 84.0463 304.594 85.1066 322.133 84.0463C339.673 82.986 354.024 64.4308 357.213 61.78C360.402 59.1293 365.186 50.5654 360.402 47.9962C353.492 44.2851 352.429 47.9962 350.303 49.5866C348.177 51.1771 338.61 70.2624 330.106 74.5036Z" fill="#FCDB8F"/>
<path d="M340.238 204.813V203.354H344.488L343.957 206.758C342.363 208.379 338.857 211.718 337.582 212.107C336.307 212.497 334.926 212.27 334.395 212.107C333.687 211.783 332.589 211.038 333.864 210.648C335.139 210.259 338.645 206.596 340.238 204.813Z" fill="#FCDB8F"/>
<path d="M348.973 41.8432L349.533 34.0454C352.672 31.8174 355.699 33.4884 356.82 34.6023V42.4001C356.26 43.1428 354.578 44.5167 352.336 44.0711C350.094 43.6255 349.16 42.4001 348.973 41.8432Z" fill="#FCDB8F"/>
<path d="M0.872774 58.3176C0.872774 61.0082 4.98345 90.8293 7.03879 105.404C9.84153 107.085 22.7341 108.767 27.2185 108.206C30.806 107.758 44.0349 102.788 50.201 100.359C48.1456 85.5976 43.6986 54.3938 42.3533 47.6672C40.6717 39.259 35.6267 34.7746 30.0213 31.9719C24.4158 29.1691 17.1287 30.2902 14.8865 31.9719C12.6443 33.6535 8.15989 35.8957 4.23606 40.3801C0.312227 44.8644 0.872774 54.9543 0.872774 58.3176Z" fill="#F2F2F2"/>
<path d="M352.336 37.4316C353.681 37.4316 355.886 36.7909 356.82 36.4706V34.0683L349.533 35.0292V36.871C350.094 37.0312 350.991 37.4316 352.336 37.4316Z" fill="#EBC56F"/>
<path d="M353.288 94.432C346.913 94.432 340.716 92.3067 338.414 91.2441C335.581 106.475 329.914 137.257 329.914 138.532C329.914 139.807 336.643 182.278 340.007 203.354H344.257C344.434 182.455 345.001 140.551 345.851 140.126C346.913 139.595 349.038 136.407 349.57 134.281C350.101 132.156 351.163 131.093 352.226 131.625C353.288 132.156 351.695 135.875 352.226 139.063C352.651 141.614 358.423 182.986 361.257 203.354H366.038L367.631 138.532C369.048 134.636 371.775 124.718 371.35 116.216C370.925 107.715 368.694 96.026 367.631 91.2441C365.507 92.3067 359.663 94.432 353.288 94.432Z" fill="#040D62"/>
<path d="M7.59936 15.1555C8.49623 16.9492 11.7101 18.8925 12.6443 19.6398L10.4021 15.1555C13.5786 12.5396 19.5951 7.86836 20.492 7.86836C21.6131 7.86836 22.7342 8.4289 23.8553 9.55C24.9764 10.6711 26.658 13.4738 26.658 12.9133C26.658 12.3527 24.9764 4.50507 23.2947 2.82343C21.6131 1.14179 19.3709 0.0206925 17.6892 0.58124C16.0076 1.14179 12.0837 3.38398 9.84155 7.30781C7.59936 11.2316 6.47826 12.9133 7.59936 15.1555Z" fill="#020D62"/>
<path d="M12.0837 210.226L12.6443 201.257H5.91772L6.47827 210.226H12.0837Z" fill="#F0CB77"/>
<path d="M12.6443 209.105C10.4021 209.553 6.85197 209.292 5.35718 209.105L4.79663 213.589H25.5369L24.9763 211.347C21.7999 210.413 14.8865 208.656 12.6443 209.105Z" fill="#301C1A"/>
<path d="M51.8826 210.787L50.7615 204.621L56.9276 204.06V210.226L51.8826 210.787Z" fill="#F0CB77"/>
<path d="M33.9451 70.6497C33.0482 64.3716 27.9659 46.7331 25.5369 38.6986L24.4158 34.7747L20.4919 36.4564L21.613 39.8196C22.921 43.9303 25.8732 53.8333 27.2185 60.5599C28.5638 67.2865 28.5265 80.22 28.3396 85.0781L36.7478 92.5111C36.1873 87.8399 34.842 76.9279 33.9451 70.6497Z" fill="#F96751"/>
<path d="M14.8865 200.697L4.23608 199.576V203.499H14.3259L14.8865 200.697Z" fill="#050D66"/>
<path d="M58.6092 202.378H47.9588V205.742L58.6092 205.181V202.378Z" fill="#050D66"/>
<path d="M28.3396 41.5013L28.9002 31.4114L24.9763 30.2903L16.5681 30.8509L12.6443 33.6536L21.0525 42.6224L22.1736 36.4563L28.3396 41.5013Z" fill="#E4E4E4"/>
<path d="M30.0213 107.646C23.2947 109.44 11.8969 106.898 7.03882 105.404L5.35718 201.818H13.2048C13.9522 198.081 15.5591 189.934 16.0076 187.244C16.456 184.553 25.9106 144.268 30.5818 124.462L50.201 203.499H56.9275C56.5538 194.904 56.2549 178.275 55.8064 160.337C55.358 142.4 51.8826 112.878 50.201 100.359C46.2771 102.04 36.7478 105.852 30.0213 107.646Z" fill="#050D66"/>
<path d="M23.8552 80.1789C21.6131 76.8156 18.2498 56.0753 17.1287 50.4699C16.8067 48.7882 13.7654 43.1828 10.9627 42.6222C8.15992 42.0617 3.67554 42.0617 1.9939 45.9855C0.312261 49.9093 3.67554 58.8781 5.35719 65.0441C7.03883 71.2101 14.8865 89.7082 19.3709 91.9504C23.8552 94.1926 46.8377 107.085 50.7615 108.206C53.9006 109.103 54.8722 104.697 54.6853 103.016C54.3116 102.455 52.3311 100.101 47.3982 97.4101C41.2322 94.0468 26.0974 83.5422 23.8552 80.1789Z" fill="#E4E4E4"/>
<path d="M57.4881 209.105C56.5912 209.553 52.2563 209.665 50.201 209.665L49.0799 214.15H69.8201L69.2596 211.908C65.7095 210.786 58.385 208.656 57.4881 209.105Z" fill="#301C1A"/>
<path d="M25.5369 32.5324C24.64 30.2902 24.4158 25.8059 24.4158 23.5637C23.9674 22.2184 18.6235 22.2557 16.0076 22.4426C15.8207 26.1796 17.6892 31.9719 18.2497 33.093C18.53 33.6535 24.4158 33.6535 25.5369 32.5324Z" fill="#F0CB77"/>
<path d="M22.7341 28.0481C21.0525 28.0481 17.1287 26.3665 16.5681 25.8059L16.0076 23.0032C17.8761 23.0032 21.9494 23.2274 23.2947 24.1243C24.64 25.0211 24.6026 26.3665 24.4158 26.927C24.4158 27.3007 24.0795 28.0481 22.7341 28.0481Z" fill="#E6BD61"/>
<path d="M27.2185 22.4425C28.3396 20.2003 26.658 14.5949 26.0974 11.7921C24.9763 9.54994 21.613 6.74721 19.9314 7.8683C18.2498 8.9894 10.4021 14.5949 10.4021 15.716C10.4021 16.8371 11.5232 18.5187 13.2048 20.7609C14.8865 23.0031 17.6892 24.6847 21.0525 25.8058C24.4158 26.9269 26.0974 24.6847 27.2185 22.4425Z" fill="#F0CB77"/>
<path d="M365.789 205.596H364.294C364.128 206.299 363.696 207.706 363.298 207.706C362.8 207.706 359.312 211.399 358.813 211.927C358.315 212.454 356.322 212.982 355.824 211.927C355.326 210.871 353.831 211.399 353.332 211.399C352.834 211.399 352.336 212.454 352.336 212.982C352.336 213.404 353.332 214.213 353.831 214.564H357.817C358.614 214.564 362.135 211.047 363.796 209.289V213.509H365.789V205.596Z" fill="#0A154F"/>
<path d="M345.609 205.596H343.99C343.81 206.299 343.342 207.706 342.91 207.706C342.371 207.706 338.592 211.399 338.052 211.927C337.513 212.454 335.353 212.982 334.814 211.927C334.274 210.871 332.655 211.399 332.115 211.399C331.575 211.399 331.035 212.454 331.035 212.982C331.035 213.404 332.115 214.213 332.655 214.564H336.973C337.836 214.564 341.651 211.047 343.45 209.289V213.509H345.609V205.596Z" fill="#0A154F"/>
<path d="M347.98 26.3013C347.98 27.34 347.467 33.0528 348.492 34.0915C348.663 34.6108 349.414 35.7534 351.053 36.1689C353.102 36.6882 355.15 35.6495 356.175 35.1302C356.994 34.7147 358.907 31.841 359.76 30.4561C359.931 30.4561 360.682 30.1445 362.321 28.898C364.37 27.34 363.346 25.2626 362.833 24.7432C362.424 24.3278 360.955 24.9164 360.272 25.2626C360.272 24.7432 360.17 23.2891 359.76 21.6272C359.248 19.5498 357.711 19.0304 355.15 18.5111C352.589 17.9917 352.077 19.0304 350.541 20.0691C349.004 21.1078 347.98 25.2626 347.98 26.3013Z" fill="#FCDB8F"/>
</svg>
