<svg width="218" height="243" viewBox="0 0 218 243" fill="none" xmlns="http://www.w3.org/2000/svg">
<path d="M30.1845 63.5316L30.4879 67.4557L34.7352 67.1287C34.4318 66.1477 33.9464 64.1202 34.4318 63.8586C35.0386 63.5316 35.9488 63.8586 36.2522 63.5316C36.5555 63.2046 36.2522 59.2805 36.5555 58.6265C36.8589 57.9725 35.9488 57.9725 35.6454 57.3184C35.342 56.6644 35.342 55.3564 34.7352 54.7024C34.1285 54.0483 32.9149 55.3564 31.398 57.3184C30.1845 58.8881 30.0834 62.1146 30.1845 63.5316Z" fill="#F6CB77"/>
<path d="M27.4624 58.3015C28.1159 58.9982 28.0009 60.4555 28.0009 61.5324C28.0009 62.6094 27.4624 65.409 30.1548 63.6863C31.6329 62.7407 31.2318 61.1521 31.2318 60.4555C31.2318 59.7588 31.1169 58.9982 31.7703 58.3015C32.4237 57.6049 33.6943 58.2376 35.0012 56.1476C36.0466 54.4756 35.0961 50.1604 34.4427 48.0704C34.4427 50.1604 32.3088 50.2244 30.6933 50.7628C28.4117 51.5234 28.2308 50.985 26.924 52.3783C25.6171 53.7716 26.1556 56.9082 27.4624 58.3015Z" fill="black"/>
<path d="M27.0068 164.382L28.0009 158.638L24.3558 157.92L23.6931 163.664L27.0068 164.382Z" fill="#F7CB77"/>
<path d="M24.77 98.0413L20.7054 89.318L15.0774 88.9949L24.4574 101.918L24.77 98.0413Z" fill="#F7CB77"/>
<path d="M53.8479 162.997L52.2642 156.843L48.4631 157.766L50.6804 163.305L53.8479 162.997Z" fill="#F7CB77"/>
<path d="M50.79 127.355C50.2617 124.368 45.9475 108.234 43.8565 100.54C33.2911 98.0958 26.9079 102.011 25.037 104.274C25.5872 113.325 26.6878 131.564 26.6878 132.107C26.6878 132.786 23.3861 158.583 23.7163 159.262C24.0465 159.941 28.0085 160.28 28.6688 159.941C29.3291 159.602 34.942 134.483 35.2721 133.126C35.6023 131.768 35.6023 110.044 36.2626 110.723C36.923 111.402 42.2056 127.355 42.5358 129.731C42.866 132.107 46.1676 157.565 47.4883 158.583C48.5448 159.398 51.4503 158.244 52.771 157.565C52.3308 148.74 51.3182 130.342 50.79 127.355Z" fill="#D84C58"/>
<path d="M26.565 163.284C25.9906 163.768 24.4111 163.082 23.6931 162.679C21.8982 161.468 21.5392 162.981 21.5392 163.889C21.5392 164.796 21.5392 166.007 22.6161 166.309C23.6931 166.612 29.4369 166.612 30.5138 166.309C31.5908 166.007 31.2318 164.796 30.8728 164.494C30.5138 164.191 28.7189 163.586 28.3599 163.284C28.0009 162.981 27.283 162.679 26.565 163.284Z" fill="#301C1A"/>
<path d="M41.9341 68.079C40.2513 68.7466 37.8955 68.7466 36.8858 68.4128C35.9884 68.4128 33.5876 68.3461 31.1645 68.079C28.1355 67.7452 25.7797 69.0804 21.7411 71.0831C17.7025 73.0858 14.0005 88.1061 14.0005 88.7736C14.0005 89.3077 19.1609 89.2187 21.7411 89.1074C21.9655 88.1061 22.6161 85.9698 23.4239 85.4358C24.4335 84.7682 24.7701 87.3795 24.7701 88.7736C24.7701 90.2688 24.097 104.128 24.097 104.795C24.097 105.463 25.4431 105.797 31.8376 107.132C36.9531 108.2 43.6168 104.016 46.3092 101.791C45.2996 96.3394 43.4149 84.9017 43.9534 82.7655C44.4919 80.6293 52.928 71.6394 57.0788 67.4115L52.7037 62.0709C49.6747 63.8511 43.2803 67.545 41.9341 68.079Z" fill="#CA3542"/>
<path d="M48.4632 51.8398L49.0017 48.6089C50.294 47.3166 50.2581 49.8654 50.0786 51.3013C53.3095 53.6347 59.7712 58.6246 59.7712 59.917C59.7712 61.2093 56.8993 65.4813 55.4634 67.4557L52.771 63.6864C53.4889 62.7889 54.9249 60.7786 54.9249 59.917C54.9249 58.84 49.0017 53.4552 48.4632 53.4552C48.0324 53.4552 48.2837 52.3783 48.4632 51.8398Z" fill="#F7CB77"/>
<path d="M29.0779 66.7041V68.3305L36.6166 68.5327V66.3788L29.0779 66.7041Z" fill="#B8202D"/>
<path d="M22.6161 89.7129V88.277L13.3274 87.918L12.9235 90.0719L22.6161 89.7129Z" fill="#B8202D"/>
<path d="M51.9251 60.7671L50.4074 62.2637L56.5502 69.2516L59.1103 67.2941L51.9251 60.7671Z" fill="#B8202D"/>
<ellipse cx="61.0637" cy="42.4932" rx="3.22557" ry="6.46175" transform="rotate(-30.2339 61.0637 42.4932)" fill="#141633"/>
<ellipse rx="1.30256" ry="1.78505" transform="matrix(-0.863977 0.503531 0.503531 0.863977 38.2708 55.1227)" fill="#141633"/>
<path d="M56.5973 40.6226L37.9102 54.4215L38.7947 55.6614C45.849 52.6557 60.0639 46.6621 60.4888 46.7332C61.0199 46.822 63.0554 47.7085 63.6754 47.2662C64.2953 46.824 64.079 43.2242 63.0593 41.1576C61.7114 38.426 59.1531 36.9284 57.5726 38.056C56.9526 38.4982 56.4795 40.239 56.5973 40.6226Z" fill="#3D427A"/>
<path d="M55.4448 162.055C54.7466 161.294 53.6994 161.675 53.3503 162.055C50.9067 163.578 50.2085 161.675 49.8595 161.294C49.5104 160.913 48.4631 161.294 48.4631 162.436C48.4631 163.578 48.8122 167.004 49.5104 167.385C50.2085 167.766 59.2846 167.766 60.681 166.624C62.0773 165.482 61.03 164.34 60.681 163.959C60.3319 163.578 56.1429 162.817 55.4448 162.055Z" fill="#301C1A"/>
<path d="M152.39 0.684326V125.612" stroke="#14B000" stroke-width="2"/>
<path d="M45.2323 164.382H0V240.266L45.2323 243V164.382Z" fill="#D99800"/>
<path d="M113.081 141.766L64.6175 142.843V235.396L113.081 237.615V141.766Z" fill="#D99800"/>
<path d="M169.083 120.227L118.465 123.651V230.689L169.083 233.307V120.227Z" fill="#D99800"/>
<path d="M45.2323 164.382H95.8493V240.266L45.2323 243V164.382Z" fill="#F7B314"/>
<path d="M113.081 141.766L155.082 142.843V235.396L113.081 237.615V141.766Z" fill="#F7B314"/>
<path d="M169.083 120.227L205.699 123.651V230.689L169.083 233.307V120.227Z" fill="#F7B314"/>
<path d="M178.237 3.91527C168.329 -1.68492 156.877 2.65881 152.39 5.5307V44.8397C159.031 42.5063 174.683 40.5318 184.16 51.3014C193.637 62.071 217.546 59.9171 217.546 58.8401C217.546 56.8986 220.777 42.1473 210.007 34.6086C195.801 24.6645 206.597 15.7618 206.776 8.22307C194.391 9.30003 190.622 10.9155 178.237 3.91527Z" fill="#34E01E"/>
</svg>
