<svg width="448" height="234" viewBox="0 0 448 234" fill="none" xmlns="http://www.w3.org/2000/svg">
<path d="M317.805 29.8261C310.458 30.1759 303.462 33.3244 301.363 35.0736C294.366 33.6743 290.168 37.1726 288.419 38.5719C286.67 39.9713 278.623 47.3178 277.224 56.0637C275.825 64.8096 277.224 70.0571 278.623 79.5026C280.023 88.9482 284.571 102.242 287.02 113.437C288.979 122.392 286.203 134.893 284.571 140.024C311.508 141.657 365.523 143.942 366.082 140.024C366.782 135.126 361.185 122.183 358.386 114.486C355.587 106.79 355.937 86.8492 355.587 84.0505C355.237 81.2518 353.838 62.7106 345.442 47.3178C337.046 31.9251 325.152 29.4762 317.805 29.8261Z" fill="black"/>
<path d="M325.502 113.087C324.662 111.128 324.219 103.875 324.103 100.493C317.456 96.6446 303.112 106.44 303.112 109.588C303.112 112.107 301.946 117.635 301.363 120.084L305.561 128.13L324.103 129.179L330.749 117.985C329.35 117.168 326.341 115.046 325.502 113.087Z" fill="#FFC1C2"/>
<path d="M302.762 114.836C302.413 116.585 308.36 114.486 311.158 113.437C312.908 112.801 320.954 106.79 323.053 106.09C324.732 105.53 324.452 102.592 324.102 101.192C322.47 100.959 318.505 100.842 315.706 102.242C312.907 103.641 306.377 107.723 303.462 109.588C303.345 110.754 303.042 113.437 302.762 114.836Z" fill="#F9A09E"/>
<path d="M311.159 124.281C305.841 124.002 302.413 121.599 301.363 120.433L295.416 144.222L292.268 220.836L330.4 208.592L338.096 128.829C336.114 124.748 331.939 116.795 331.099 117.635C330.05 118.684 317.806 124.631 311.159 124.281Z" fill="#FFFFFD"/>
<path d="M355.937 124.282C353.419 123.442 338.096 119.5 330.749 117.635C330.166 132.444 328.86 163.253 328.3 168.011C327.601 173.958 325.852 200.546 324.802 201.945C323.753 203.344 309.409 207.892 307.66 208.592C305.911 209.291 278.974 219.087 278.974 220.486C278.974 221.606 280.373 228.416 281.073 231.681H349.29C348.941 230.981 348.451 229.442 349.29 228.882C350.34 228.182 365.033 219.087 366.782 216.288C368.531 213.489 371.33 210.691 374.828 187.602C378.327 164.513 372.729 150.169 368.182 138.625C363.634 127.08 359.086 125.331 355.937 124.282Z" fill="#43DCC9"/>
<path d="M264.28 144.922C261.132 148.07 239.792 177.806 234.544 184.453C231.396 188.59 234.544 216.288 240.142 215.588C245.739 214.889 267.079 195.648 268.478 192.849C269.878 190.05 274.167 187.5 274.5 188.5C275.06 190.179 272.56 215.005 271.277 226.783H295.766L301.363 120.083C297.631 120.9 288.699 123.092 282.822 125.331C275.475 128.13 267.429 141.773 264.28 144.922Z" fill="#43DCC9"/>
<path d="M275 187C276.667 181.333 280 169.4 280 167" stroke="#3FCCBA" stroke-width="3" stroke-linecap="round"/>
<path d="M266.383 219.437C269.881 219.437 275.828 219.786 279.327 221.186L280.023 226.783C270.694 227.25 252.109 227.203 252.389 226.083C252.739 224.684 262.884 219.437 266.383 219.437Z" fill="#F2CCD5"/>
<path d="M350.69 138.275C349.29 141.773 347.891 141.423 347.541 154.717C347.191 168.011 345.792 186.202 345.092 189.001C344.393 191.8 326.201 202.645 302.762 210.341C295.742 212.646 286.204 218.97 278.974 220.836" stroke="#3FCCBA" stroke-width="3" stroke-linecap="round"/>
<path d="M280.723 66.5586C281.189 58.629 284.501 41.8603 301.013 38.222C321.653 33.6742 331.099 50.1164 334.247 66.5586" stroke="#CE1F2E" stroke-width="4" stroke-linecap="round"/>
<path d="M286.32 63.76C283.521 70.7567 285.27 73.5554 286.32 78.1033C285.853 80.5521 285.2 86.3594 286.32 89.9977C287.719 94.5455 294.016 103.991 296.815 106.44C299.614 108.889 303.112 110.988 307.31 109.938C310.669 109.099 320.137 103.525 324.452 100.843C325.152 100.493 326.831 98.8135 327.95 94.8953C329.07 90.9772 327.95 75.5378 327.251 68.3079C322.47 69.0076 311.578 69.7772 306.261 67.2584C300.943 64.7396 295.182 56.4135 292.967 52.5653C291.684 53.9646 288.559 58.1627 286.32 63.76Z" fill="#FBC5C5"/>
<path d="M2 232L446 232" stroke="#DCE0E3" stroke-width="3" stroke-linecap="round"/>
<path d="M332.848 89.9669C332.549 93.3982 328.978 98.7128 319.852 102.229C315.356 103.96 304.162 105.01 300.313 100.112" stroke="#CE1F2E" stroke-width="4" stroke-linecap="round"/>
<path d="M313.607 226.433H233.145V231.331H313.607C314.96 231.331 316.056 230.235 316.056 228.882C316.056 227.53 314.96 226.433 313.607 226.433Z" fill="#F2F2F2"/>
<path d="M233.145 144.922H105.105L114.901 231.331H241.891L233.145 144.922Z" fill="#E7E7E7"/>
<path d="M228.248 144.922H100.208L110.003 231.331H236.993L228.248 144.922Z" fill="#F2F2F2"/>
<ellipse cx="334.247" cy="79.5026" rx="11.1947" ry="15.3927" fill="#E60D0D"/>
<ellipse cx="334.248" cy="79.5026" rx="9.79538" ry="13.2937" fill="#FF3737"/>
<ellipse cx="299.964" cy="99.7623" rx="2.09901" ry="2.79868" transform="rotate(-90 299.964 99.7623)" fill="#FF3737"/>
<path d="M131.348 75.0693H120.56C118.637 75.0693 117.822 77.5179 119.361 78.6704L124.601 82.5932C125.295 83.1131 126.246 83.126 126.954 82.6252L132.502 78.7024C134.095 77.5762 133.298 75.0693 131.348 75.0693Z" fill="#43DCC9"/>
<path d="M133.794 80.7525L126.995 85.512C126.291 86.0042 125.352 85.9928 124.661 85.4836L118.437 80.8976C117.117 79.9245 115.251 80.8674 115.251 82.5077V87.6726C115.251 88.7772 116.146 89.6726 117.251 89.6726H134.941C136.045 89.6726 136.941 88.7772 136.941 87.6726V82.391C136.941 80.7729 135.119 79.8246 133.794 80.7525Z" fill="#43DCC9"/>
<path d="M42.5205 150.336C44.6215 150.598 48.6658 150.021 48.0355 145.609" stroke="#F2F2F2" stroke-width="3" stroke-linecap="round"/>
<path d="M52.7621 155.851C55.3883 151.911 59.2226 142.772 53.5499 137.73C46.4592 131.427 40.1563 135.366 37.7927 139.306C35.4291 143.245 37.0048 147.972 38.5806 148.76" stroke="#F2F2F2" stroke-width="3" stroke-linecap="round"/>
<path d="M49.6107 161.366C48.2976 163.467 46.4592 168.614 49.6107 172.396" stroke="#F2F2F2" stroke-width="3" stroke-linecap="round"/>
<path d="M62.5634 134.578C60.4624 132.477 56.4181 126.227 57.0483 118.033C57.6786 109.84 62.5635 106.215 64.9272 105.427" stroke="#F2F2F2" stroke-width="3" stroke-linecap="round"/>
<path d="M68.0786 87.3066C69.917 89.4076 72.6482 94.8701 68.8665 99.9124" stroke="#F2F2F2" stroke-width="3" stroke-linecap="round"/>
<path d="M73.1063 194.709H43.1675V222.951C43.1675 227.369 46.7492 230.951 51.1675 230.951H65.1063C69.5245 230.951 73.1063 227.369 73.1063 222.951V194.709Z" fill="#F3EB00"/>
<path fill-rule="evenodd" clip-rule="evenodd" d="M59.5908 230.951H65.1058C69.5241 230.951 73.1058 227.369 73.1058 222.951V194.709H67.5908V222.951C67.5908 227.369 64.0091 230.951 59.5908 230.951Z" fill="#E7DF00"/>
<rect x="46.3188" y="200" width="3.15145" height="14.1815" rx="1.57573" fill="white"/>
<path d="M60.2003 179.487C58.3619 176.335 55.7882 168.299 60.2003 161.366C65.7153 152.699 72.8059 148.76 72.8059 140.093C72.8059 131.427 69.6544 129.851 65.7151 126.7" stroke="#F2F2F2" stroke-width="3" stroke-linecap="round"/>
<path d="M187.117 103.162C187.117 102.333 187.789 101.662 188.617 101.662H208.561C209.39 101.662 210.061 102.333 210.061 103.162V113.699C210.061 114.528 209.39 115.199 208.561 115.199H206.877C206.077 115.199 205.325 115.582 204.855 116.229L203.761 117.733C203.139 118.588 201.85 118.548 201.282 117.656L200.456 116.357C199.997 115.636 199.201 115.199 198.347 115.199H188.617C187.789 115.199 187.117 114.528 187.117 113.699V103.162Z" stroke="#D3D7D8"/>
<circle cx="203.292" cy="108.431" r="1.28273" fill="#D3D7D8"/>
<circle cx="198.162" cy="108.431" r="1.28273" fill="#D3D7D8"/>
<circle cx="193.031" cy="108.431" r="1.28273" fill="#D3D7D8"/>
<path d="M127.64 4C127.64 1.79086 129.431 0 131.64 0H180.87C183.079 0 184.87 1.79086 184.87 4V25.0752C184.87 27.2843 183.079 29.0752 180.87 29.0752H176.592C175.346 29.0752 174.171 29.6561 173.414 30.6463L169.019 36.3974C168.217 37.4464 166.637 37.4446 165.838 36.3937L161.473 30.6539C160.716 29.6592 159.538 29.0752 158.289 29.0752H131.64C129.431 29.0752 127.64 27.2843 127.64 25.0752V4Z" fill="#43DCC9"/>
<rect x="134.547" y="9.86707" width="21.7077" height="1.97343" fill="#FFFFFD"/>
<rect x="134.547" y="16.7742" width="7.89371" height="1.97343" fill="#FFFFFD"/>
<rect x="149.348" y="16.7742" width="15.7874" height="1.97343" fill="#FFFFFD"/>
<rect x="161.188" y="9.86707" width="13.814" height="1.97343" fill="#FFFFFD"/>
</svg>
