<svg width="586" height="592" viewBox="0 0 586 592" fill="none" xmlns="http://www.w3.org/2000/svg">
<rect x="0.678711" width="584.475" height="592" fill="#FDFDFD"/>
<path d="M154.088 343.948C127.259 343.948 105.509 322.198 105.509 295.368V295.368C105.509 268.539 127.259 246.789 154.088 246.789L171.901 246.789C198.73 246.789 220.48 268.539 220.48 295.368V295.368C220.48 322.198 198.73 343.948 171.901 343.948L154.088 343.948Z" fill="#CE1F2E" fill-opacity="0.8"/>
<path d="M121.097 264.026C128.041 238.111 154.679 222.731 180.594 229.675V229.675C206.51 236.619 221.889 263.257 214.945 289.173L204.886 326.712C197.942 352.628 171.304 368.007 145.389 361.063V361.063C119.473 354.119 104.094 327.481 111.038 301.566L121.097 264.026Z" fill="#14D3BB" fill-opacity="0.8"/>
<path d="M114.414 275.937C114.414 249.107 136.164 227.357 162.994 227.357V227.357C189.823 227.357 211.573 249.107 211.573 275.937V314.8C211.573 341.63 189.823 363.38 162.994 363.38V363.38C136.164 363.38 114.414 341.63 114.414 314.801V275.937Z" fill="#0446A9" fill-opacity="0.8"/>
<path fill-rule="evenodd" clip-rule="evenodd" d="M150.884 292.576C149.155 292.576 147.753 293.978 147.753 295.707V313.37C147.753 315.099 149.155 316.501 150.884 316.501C152.613 316.501 154.015 315.099 154.015 313.37V295.707C154.015 293.978 152.613 292.576 150.884 292.576Z" fill="white"/>
<path fill-rule="evenodd" clip-rule="evenodd" d="M157.899 257.801C157.899 256.072 159.301 254.67 161.03 254.67H180.229C181.958 254.67 183.36 256.072 183.36 257.801C183.36 259.53 181.958 260.931 180.229 260.931H161.03C159.301 260.931 157.899 259.53 157.899 257.801ZM171.619 265.697C173.348 265.697 174.75 267.099 174.75 268.828V313.625C174.75 321.115 168.743 327.253 161.252 327.253C153.76 327.253 147.753 321.115 147.753 313.625C147.753 311.896 149.155 310.494 150.884 310.494C152.613 310.494 154.015 311.896 154.015 313.625C154.015 317.73 157.292 320.992 161.252 320.992C165.212 320.992 168.489 317.73 168.489 313.625V268.828C168.489 267.099 169.89 265.697 171.619 265.697ZM139.142 281.824C140.871 281.824 142.273 283.226 142.273 284.955V314.906C142.273 325.053 150.499 333.279 160.646 333.279C170.793 333.279 179.018 325.053 179.018 314.906V313.666L191.771 300.091C192.955 298.831 194.936 298.769 196.196 299.953C197.456 301.136 197.518 303.118 196.334 304.378L185.247 316.18C184.584 329.193 173.823 339.54 160.646 339.54C147.041 339.54 136.012 328.511 136.012 314.906V284.955C136.012 283.226 137.413 281.824 139.142 281.824ZM160.867 291.04C162.597 291.04 163.998 292.442 163.998 294.171V313.37C163.998 315.099 162.597 316.501 160.867 316.501C159.138 316.501 157.737 315.099 157.737 313.37V294.171C157.737 292.442 159.138 291.04 160.867 291.04Z" fill="white"/>
<path d="M251.77 316.239V282.845H261.921L262.255 289.324C263.324 286.964 264.815 285.183 266.73 283.981C268.689 282.778 270.938 282.177 273.476 282.177C275.925 282.177 278.062 282.734 279.887 283.847C281.757 284.96 283.138 286.607 284.028 288.789C285.052 286.607 286.566 284.96 288.57 283.847C290.618 282.734 292.844 282.177 295.249 282.177C298.543 282.177 301.259 283.179 303.397 285.183C305.578 287.142 306.669 290.08 306.669 293.999V316.239H295.315V296.603C295.315 294.466 294.892 292.975 294.046 292.129C293.2 291.283 292.109 290.86 290.774 290.86C289.082 290.86 287.679 291.505 286.566 292.797C285.453 294.043 284.896 295.913 284.896 298.407V316.239H273.542V296.603C273.542 294.466 273.119 292.975 272.273 292.129C271.427 291.283 270.337 290.86 269.001 290.86C267.442 290.86 266.062 291.461 264.86 292.663C263.702 293.865 263.123 295.847 263.123 298.607V316.239H251.77Z" fill="#77787A"/>
<path d="M330.94 316.907C325.375 316.907 320.967 315.393 317.716 312.365C314.511 309.338 312.908 305.063 312.908 299.542C312.908 295.891 313.642 292.774 315.112 290.192C316.626 287.565 318.674 285.583 321.256 284.248C323.883 282.867 326.933 282.177 330.406 282.177C333.924 282.177 336.907 282.867 339.356 284.248C341.849 285.583 343.741 287.453 345.033 289.858C346.324 292.218 346.97 294.934 346.97 298.006C346.97 298.852 346.925 299.676 346.836 300.477C346.791 301.234 346.747 301.88 346.702 302.414H323.928C324.239 304.729 324.996 306.399 326.198 307.423C327.401 308.403 328.981 308.892 330.94 308.892C332.632 308.892 333.968 308.558 334.948 307.891C335.972 307.223 336.729 306.288 337.219 305.086L346.302 308.091C345.678 310.006 344.587 311.631 343.029 312.966C341.515 314.258 339.69 315.237 337.552 315.905C335.46 316.573 333.256 316.907 330.94 316.907ZM330.406 290.125C326.8 290.125 324.662 292.195 323.994 296.336H336.217C335.727 292.195 333.79 290.125 330.406 290.125Z" fill="#77787A"/>
<path d="M376.84 282.845V290.926H366.889V304.351C366.889 305.954 367.267 307.111 368.024 307.824C368.825 308.492 369.916 308.826 371.297 308.826C372.365 308.826 373.278 308.714 374.035 308.492C374.792 308.225 375.504 307.846 376.172 307.356L377.374 314.369C376.261 315.126 374.836 315.749 373.1 316.239C371.408 316.684 369.694 316.907 367.957 316.907C364.128 316.907 361.1 316.106 358.874 314.503C356.692 312.855 355.579 310.095 355.535 306.221V290.926H349.791V282.845H355.535V275.365L366.889 272.226V282.845H376.84Z" fill="#77787A"/>
<path d="M401.24 295.067C401.24 293.509 400.795 292.284 399.904 291.394C399.058 290.459 397.901 289.991 396.431 289.991C394.962 289.991 393.693 290.37 392.624 291.127C391.6 291.839 390.888 293.13 390.487 295.001L380.87 292.73C381.493 289.524 383.14 286.964 385.812 285.049C388.483 283.135 392.246 282.177 397.099 282.177C401.997 282.177 405.782 283.268 408.453 285.45C411.169 287.587 412.527 290.726 412.527 294.867V307.089C412.527 308.826 413.306 309.694 414.865 309.694C415.666 309.694 416.312 309.605 416.802 309.427L416.134 315.905C414.798 316.529 413.173 316.84 411.258 316.84C409.166 316.84 407.362 316.439 405.848 315.638C404.335 314.792 403.31 313.523 402.776 311.831C401.841 313.568 400.349 314.859 398.301 315.705C396.298 316.506 394.16 316.907 391.89 316.907C388.461 316.907 385.723 316.128 383.675 314.569C381.671 312.966 380.669 310.673 380.669 307.69C380.669 305.286 381.382 303.304 382.807 301.746C384.276 300.143 386.569 299.03 389.686 298.407L401.24 296.002V295.067ZM391.89 306.622C391.89 307.601 392.246 308.336 392.958 308.826C393.671 309.315 394.517 309.56 395.496 309.56C397.01 309.56 398.346 309.115 399.504 308.225C400.661 307.29 401.24 305.842 401.24 303.883V302.013L395.83 303.149C394.494 303.416 393.493 303.817 392.825 304.351C392.201 304.841 391.89 305.598 391.89 306.622Z" fill="#77787A"/>
<path d="M432.504 268.686V304.885C432.504 306.354 432.748 307.401 433.238 308.024C433.728 308.648 434.552 308.959 435.709 308.959C436.377 308.959 436.934 308.915 437.379 308.826C437.824 308.737 438.359 308.603 438.982 308.425L438.247 315.237C437.446 315.727 436.4 316.128 435.108 316.439C433.817 316.751 432.548 316.907 431.301 316.907C427.739 316.907 425.157 316.083 423.554 314.436C421.951 312.788 421.15 310.095 421.15 306.354V268.686H432.504Z" fill="#77787A"/>
<path d="M448.81 278.971C446.494 278.971 444.802 278.548 443.734 277.702C442.71 276.812 442.198 275.432 442.198 273.562C442.198 271.647 442.71 270.267 443.734 269.421C444.802 268.53 446.494 268.085 448.81 268.085C451.081 268.085 452.75 268.53 453.819 269.421C454.887 270.267 455.422 271.647 455.422 273.562C455.422 275.432 454.887 276.812 453.819 277.702C452.75 278.548 451.081 278.971 448.81 278.971ZM454.487 282.845V316.239H443.133V282.845H454.487Z" fill="#77787A"/>
<path d="M486.479 282.845V290.926H476.528V304.351C476.528 305.954 476.906 307.111 477.663 307.824C478.465 308.492 479.556 308.826 480.936 308.826C482.004 308.826 482.917 308.714 483.674 308.492C484.431 308.225 485.143 307.846 485.811 307.356L487.014 314.369C485.9 315.126 484.476 315.749 482.739 316.239C481.047 316.684 479.333 316.907 477.596 316.907C473.767 316.907 470.74 316.106 468.513 314.503C466.332 312.855 465.218 310.095 465.174 306.221V290.926H459.43V282.845H465.174V275.365L476.528 272.226V282.845H486.479Z" fill="#77787A"/>
</svg>
